<svg width="38" height="38" viewBox="0 0 38 38" fill="none" xmlns="http://www.w3.org/2000/svg">
<path d="M13.7934 2.50737C17.0836 0.922871 20.9164 0.922871 24.2066 2.50737L28.6482 4.64633C31.9384 6.23082 34.3281 9.22737 35.1407 12.7877L36.2377 17.5939C37.0503 21.1542 36.1975 24.8909 33.9205 27.746L30.8469 31.6003C28.57 34.4555 25.1168 36.1184 21.4649 36.1184H16.5351C12.8832 36.1184 9.43005 34.4555 7.15313 31.6003L4.07945 27.746C1.80253 24.8909 0.949672 21.1542 1.7623 17.5939L2.85928 12.7877C3.6719 9.22737 6.06156 6.23082 9.35181 4.64633L13.7934 2.50737Z" fill="white"/>
<path d="M13.83 20.921H17.209Q17.283 21.645 17.71 22.026Q18.137 22.406 18.824 22.406Q19.53 22.406 19.938 22.081Q20.347 21.756 20.347 21.181Q20.347 20.698 20.022 20.382Q19.697 20.067 19.223 19.863Q18.75 19.658 17.877 19.398Q16.615 19.008 15.816 18.618Q15.018 18.229 14.442 17.467Q13.867 16.706 13.867 15.481Q13.867 13.661 15.185 12.63Q16.503 11.6 18.62 11.6Q20.774 11.6 22.092 12.63Q23.41 13.661 23.503 15.499H20.068Q20.031 14.868 19.604 14.506Q19.177 14.144 18.509 14.144Q17.933 14.144 17.58 14.45Q17.227 14.756 17.227 15.332Q17.227 15.963 17.822 16.316Q18.416 16.669 19.678 17.077Q20.941 17.504 21.73 17.894Q22.519 18.284 23.095 19.027Q23.67 19.77 23.67 20.939Q23.67 22.053 23.104 22.963Q22.538 23.873 21.461 24.412Q20.384 24.95 18.917 24.95Q17.487 24.95 16.355 24.486Q15.222 24.022 14.544 23.112Q13.867 22.202 13.83 20.921Z" fill="#00B2FF"/>
</svg>
