<svg width="118" height="38" viewBox="0 0 118 38" fill="none" xmlns="http://www.w3.org/2000/svg">
<path d="M13.7934 2.50737C17.0836 0.922871 20.9164 0.922871 24.2066 2.50737L28.6482 4.64633C31.9384 6.23082 34.3281 9.22737 35.1407 12.7877L36.2377 17.5939C37.0503 21.1542 36.1975 24.8909 33.9205 27.746L30.8469 31.6003C28.57 34.4555 25.1168 36.1184 21.4649 36.1184H16.5351C12.8832 36.1184 9.43005 34.4555 7.15313 31.6003L4.07945 27.746C1.80253 24.8909 0.949672 21.1542 1.7623 17.5939L2.85928 12.7877C3.6719 9.22737 6.06156 6.23082 9.35181 4.64633L13.7934 2.50737Z" fill="#00B2FF"/>
<path d="M13.83 20.921H17.209Q17.283 21.645 17.71 22.026Q18.137 22.406 18.824 22.406Q19.53 22.406 19.938 22.081Q20.347 21.756 20.347 21.181Q20.347 20.698 20.022 20.382Q19.697 20.067 19.223 19.863Q18.75 19.658 17.877 19.398Q16.615 19.008 15.816 18.618Q15.018 18.229 14.442 17.467Q13.867 16.706 13.867 15.481Q13.867 13.661 15.185 12.63Q16.503 11.6 18.62 11.6Q20.774 11.6 22.092 12.63Q23.41 13.661 23.503 15.499H20.068Q20.031 14.868 19.604 14.506Q19.177 14.144 18.509 14.144Q17.933 14.144 17.58 14.45Q17.227 14.756 17.227 15.332Q17.227 15.963 17.822 16.316Q18.416 16.669 19.678 17.077Q20.941 17.504 21.73 17.894Q22.519 18.284 23.095 19.027Q23.67 19.77 23.67 20.939Q23.67 22.053 23.104 22.963Q22.538 23.873 21.461 24.412Q20.384 24.95 18.917 24.95Q17.487 24.95 16.355 24.486Q15.222 24.022 14.544 23.112Q13.867 22.202 13.83 20.921Z" fill="white"/>
<path d="M45.1 21.052H48.563Q48.639 21.794 49.077 22.184Q49.514 22.574 50.218 22.574Q50.942 22.574 51.36 22.241Q51.779 21.908 51.779 21.318Q51.779 20.824 51.446 20.5Q51.113 20.177 50.628 19.967Q50.142 19.758 49.248 19.492Q47.954 19.092 47.136 18.692Q46.318 18.293 45.728 17.513Q45.138 16.733 45.138 15.477Q45.138 13.612 46.489 12.556Q47.84 11.5 50.009 11.5Q52.216 11.5 53.567 12.556Q54.918 13.612 55.013 15.496H51.493Q51.455 14.849 51.018 14.478Q50.58 14.107 49.895 14.107Q49.305 14.107 48.944 14.421Q48.582 14.735 48.582 15.325Q48.582 15.972 49.191 16.333Q49.8 16.695 51.094 17.113Q52.388 17.551 53.196 17.95Q54.005 18.35 54.595 19.111Q55.185 19.872 55.185 21.071Q55.185 22.213 54.604 23.145Q54.024 24.077 52.92 24.629Q51.817 25.181 50.314 25.181Q48.848 25.181 47.688 24.705Q46.527 24.23 45.833 23.297Q45.138 22.365 45.1 21.052Z M61.217 14.278Q62.339 14.278 63.186 14.735Q64.033 15.191 64.489 15.933V14.43H67.743V25.048H64.489V23.545Q64.014 24.287 63.167 24.743Q62.32 25.2 61.198 25.2Q59.904 25.2 58.838 24.525Q57.773 23.849 57.154 22.603Q56.536 21.356 56.536 19.72Q56.536 18.084 57.154 16.847Q57.773 15.61 58.838 14.944Q59.904 14.278 61.217 14.278ZM62.168 17.113Q61.198 17.113 60.522 17.808Q59.847 18.502 59.847 19.72Q59.847 20.938 60.522 21.651Q61.198 22.365 62.168 22.365Q63.138 22.365 63.814 21.661Q64.489 20.957 64.489 19.739Q64.489 18.521 63.814 17.817Q63.138 17.113 62.168 17.113Z M87.97 18.845V25.048H84.735V19.282Q84.735 18.255 84.193 17.694Q83.65 17.132 82.699 17.132Q81.748 17.132 81.205 17.694Q80.663 18.255 80.663 19.282V25.048H77.428V19.282Q77.428 18.255 76.886 17.694Q76.344 17.132 75.392 17.132Q74.441 17.132 73.899 17.694Q73.356 18.255 73.356 19.282V25.048H70.103V14.43H73.356V15.762Q73.851 15.096 74.65 14.706Q75.449 14.316 76.458 14.316Q77.657 14.316 78.598 14.83Q79.54 15.344 80.073 16.295Q80.625 15.42 81.576 14.868Q82.528 14.316 83.65 14.316Q85.629 14.316 86.799 15.515Q87.97 16.714 87.97 18.845Z M96.837 14.316V17.76H95.942Q94.724 17.76 94.116 18.283Q93.507 18.807 93.507 20.12V25.048H90.253V14.43H93.507V16.2Q94.078 15.325 94.934 14.82Q95.79 14.316 96.837 14.316Z M102.431 14.278Q103.553 14.278 104.4 14.735Q105.247 15.191 105.703 15.933V14.43H108.957V25.048H105.703V23.545Q105.228 24.287 104.381 24.743Q103.534 25.2 102.412 25.2Q101.118 25.2 100.052 24.525Q98.987 23.849 98.368 22.603Q97.75 21.356 97.75 19.72Q97.75 18.084 98.368 16.847Q98.987 15.61 100.052 14.944Q101.118 14.278 102.431 14.278ZM103.382 17.113Q102.412 17.113 101.736 17.808Q101.061 18.502 101.061 19.72Q101.061 20.938 101.736 21.651Q102.412 22.365 103.382 22.365Q104.353 22.365 105.028 21.661Q105.703 20.957 105.703 19.739Q105.703 18.521 105.028 17.817Q104.353 17.113 103.382 17.113Z M117.234 22.289V25.048H115.579Q113.809 25.048 112.82 24.182Q111.83 23.316 111.83 21.356V17.132H110.537V14.43H111.83V11.842H115.084V14.43H117.215V17.132H115.084V21.394Q115.084 21.87 115.312 22.079Q115.541 22.289 116.074 22.289Z" fill="#5E6278"/>
</svg>
