<svg width="38" height="38" viewBox="0 0 38 38" fill="none" xmlns="http://www.w3.org/2000/svg">
<path d="M13.7934 2.50737C17.0836 0.922871 20.9164 0.922871 24.2066 2.50737L28.6482 4.64633C31.9384 6.23082 34.3281 9.22737 35.1407 12.7877L36.2377 17.5939C37.0503 21.1542 36.1975 24.8909 33.9205 27.746L30.8469 31.6003C28.57 34.4555 25.1168 36.1184 21.4649 36.1184H16.5351C12.8832 36.1184 9.43005 34.4555 7.15313 31.6003L4.07945 27.746C1.80253 24.8909 0.949672 21.1542 1.7623 17.5939L2.85928 12.7877C3.6719 9.22737 6.06156 6.23082 9.35181 4.64633L13.7934 2.50737Z" fill="#00B2FF"/>
<path d="M13.856 20.965H17.240Q17.314 21.690 17.742 22.071Q18.170 22.453 18.858 22.453Q19.564 22.453 19.973 22.127Q20.382 21.802 20.382 21.225Q20.382 20.742 20.057 20.426Q19.731 20.110 19.257 19.905Q18.783 19.701 17.909 19.440Q16.645 19.050 15.845 18.659Q15.046 18.269 14.469 17.507Q13.893 16.744 13.893 15.517Q13.893 13.695 15.213 12.663Q16.533 11.631 18.653 11.631Q20.810 11.631 22.130 12.663Q23.450 13.695 23.543 15.536H20.103Q20.066 14.903 19.639 14.541Q19.211 14.178 18.541 14.178Q17.965 14.178 17.612 14.485Q17.258 14.792 17.258 15.368Q17.258 16.000 17.853 16.354Q18.449 16.707 19.713 17.116Q20.977 17.544 21.768 17.934Q22.558 18.325 23.134 19.069Q23.711 19.812 23.711 20.984Q23.711 22.099 23.143 23.010Q22.576 23.922 21.498 24.461Q20.419 25.000 18.951 25.000Q17.519 25.000 16.385 24.535Q15.250 24.070 14.572 23.159Q13.893 22.248 13.856 20.965Z" fill="white"/>
</svg>
